<?xml version="1.0" encoding="UTF-8"?>
<svg width="511px" height="299px" viewBox="0 0 511 299" version="1.1" xmlns="http://www.w3.org/2000/svg" xmlns:xlink="http://www.w3.org/1999/xlink">
    <!-- Generator: Sketch 47.1 (45422) - http://www.bohemiancoding.com/sketch -->
    <title>Artboard 2</title>
    <desc>Created with Sketch.</desc>
    <defs>
        <linearGradient x1="50%" y1="3.28842474%" x2="50%" y2="100%" id="linearGradient-1">
            <stop stop-color="#FF2EBE" offset="0%"></stop>
            <stop stop-color="#FF4343" offset="100%"></stop>
        </linearGradient>
    </defs>
    <g id="Page-1" stroke="none" stroke-width="1" fill="none" fill-rule="evenodd">
        <g id="Artboard-2">
            <path d="M1,218.727027 L19.8940057,218.727027 L37.5411989,266.987838 L37.8289248,266.987838 L55.2843007,218.727027 L74.274215,218.727027 L74.274215,286.656757 L62.2856327,286.656757 L62.2856327,232.063514 L62.0938154,232.063514 L41.4734539,286.656757 L33.0334919,286.656757 L12.7008563,232.063514 L12.509039,232.063514 L12.509039,286.656757 L1,286.656757 L1,218.727027 Z M85.9750714,263.437838 C85.9750714,259.791874 86.6304406,256.481772 87.9411989,253.507432 C89.2519571,250.533093 91.0262495,247.990551 93.2641294,245.87973 C95.5020093,243.768908 98.1554556,242.137844 101.224548,240.986486 C104.29364,239.835129 107.554502,239.259459 111.007231,239.259459 C114.45996,239.259459 117.720822,239.835129 120.789914,240.986486 C123.859007,242.137844 126.512453,243.768908 128.750333,245.87973 C130.988213,247.990551 132.762505,250.533093 134.073264,253.507432 C135.384022,256.481772 136.039391,259.791874 136.039391,263.437838 C136.039391,267.083802 135.384022,270.409895 134.073264,273.416216 C132.762505,276.422538 130.988213,278.997061 128.750333,281.139865 C126.512453,283.282668 123.859007,284.961706 120.789914,286.177027 C117.720822,287.392348 114.45996,288 111.007231,288 C107.554502,288 104.29364,287.392348 101.224548,286.177027 C98.1554556,284.961706 95.5020093,283.282668 93.2641294,281.139865 C91.0262495,278.997061 89.2519571,276.422538 87.9411989,273.416216 C86.6304406,270.409895 85.9750714,267.083802 85.9750714,263.437838 Z M97.6759277,263.437838 C97.6759277,265.228838 97.9476662,267.019811 98.4911513,268.810811 C99.0346364,270.601811 99.8498518,272.200894 100.936822,273.608108 C102.023792,275.015322 103.398469,276.166662 105.060894,277.062162 C106.723319,277.957662 108.705412,278.405405 111.007231,278.405405 C113.309051,278.405405 115.291143,277.957662 116.953568,277.062162 C118.615993,276.166662 119.99067,275.015322 121.07764,273.608108 C122.164611,272.200894 122.979826,270.601811 123.523311,268.810811 C124.066796,267.019811 124.338535,265.228838 124.338535,263.437838 C124.338535,261.646838 124.066796,259.871856 123.523311,258.112838 C122.979826,256.35382 122.164611,254.770728 121.07764,253.363514 C119.99067,251.956299 118.615993,250.82095 116.953568,249.957432 C115.291143,249.093915 113.309051,248.662162 111.007231,248.662162 C108.705412,248.662162 106.723319,249.093915 105.060894,249.957432 C103.398469,250.82095 102.023792,251.956299 100.936822,253.363514 C99.8498518,254.770728 99.0346364,256.35382 98.4911513,258.112838 C97.9476662,259.871856 97.6759277,261.646838 97.6759277,263.437838 Z M140.259372,240.602703 L152.823406,240.602703 L164.907897,274.183784 L165.099715,274.183784 L177.280114,240.602703 L189.460514,240.602703 L171.14196,286.656757 L158.865652,286.656757 L140.259372,240.602703 Z M196.557755,240.602703 L208.066794,240.602703 L208.066794,286.656757 L196.557755,286.656757 L196.557755,240.602703 Z M194.927307,224.963514 C194.927307,223.108549 195.614646,221.493475 196.989343,220.118243 C198.364041,218.743011 200.106364,218.055405 202.216365,218.055405 C204.326366,218.055405 206.100659,218.711029 207.539296,220.022297 C208.977933,221.333565 209.697241,222.980621 209.697241,224.963514 C209.697241,226.946406 208.977933,228.593462 207.539296,229.90473 C206.100659,231.215998 204.326366,231.871622 202.216365,231.871622 C200.106364,231.871622 198.364041,231.184016 196.989343,229.808784 C195.614646,228.433552 194.927307,226.818478 194.927307,224.963514 Z M254.486584,259.024324 C254.486584,257.553146 254.278784,256.145953 253.863178,254.802703 C253.447572,253.459453 252.792202,252.276131 251.89705,251.252703 C251.001898,250.229274 249.866991,249.413742 248.492293,248.806081 C247.117595,248.19842 245.503149,247.894595 243.648906,247.894595 C240.196177,247.894595 237.270992,248.933999 234.873264,251.012838 C232.475535,253.091677 231.148812,255.762146 230.893054,259.024324 L254.486584,259.024324 Z M265.995623,264.205405 L265.995623,265.740541 C265.995623,266.252255 265.963654,266.763961 265.899715,267.275676 L230.893054,267.275676 C231.020933,268.938747 231.452518,270.457876 232.187821,271.833108 C232.923125,273.20834 233.898186,274.391662 235.113035,275.383108 C236.327884,276.374555 237.702561,277.158105 239.237108,277.733784 C240.771654,278.309462 242.370115,278.597297 244.03254,278.597297 C246.909815,278.597297 249.339476,278.0696 251.321598,277.014189 C253.303721,275.958779 254.934152,274.503613 256.21294,272.648649 L263.885633,278.789189 C259.345934,284.92976 252.760272,288 244.128449,288 C240.547841,288 237.25501,287.440321 234.249857,286.320946 C231.244704,285.201571 228.639212,283.618479 226.433302,281.571622 C224.227391,279.524765 222.501053,277.014204 221.254234,274.039865 C220.007415,271.065526 219.384015,267.69146 219.384015,263.917568 C219.384015,260.207639 220.007415,256.833574 221.254234,253.79527 C222.501053,250.756967 224.211407,248.166452 226.385347,246.023649 C228.559288,243.880845 231.132811,242.217799 234.105994,241.034459 C237.079178,239.85112 240.292085,239.259459 243.744814,239.259459 C246.941786,239.259459 249.89894,239.787157 252.616365,240.842568 C255.333791,241.897978 257.68353,243.46508 259.665652,245.543919 C261.647774,247.622758 263.198282,250.213273 264.317222,253.315541 C265.436162,256.417808 265.995623,260.047727 265.995623,264.205405 Z M348.860704,270.441892 L364.685633,286.656757 L349.340247,286.656757 L341.859372,278.885135 C339.621492,281.507671 336.904107,283.682424 333.707136,285.409459 C330.510165,287.136495 326.450072,288 321.526736,288 C318.521583,288 315.644352,287.584238 312.894957,286.752703 C310.145562,285.921167 307.731885,284.673882 305.653853,283.010811 C303.575822,281.347739 301.913422,279.284922 300.666603,276.822297 C299.419784,274.359672 298.796384,271.497314 298.796384,268.235135 C298.796384,265.740528 299.211984,263.485821 300.043197,261.470946 C300.874409,259.456071 301.977348,257.649107 303.352046,256.05 C304.726743,254.450893 306.293236,253.075681 308.05157,251.924324 C309.809904,250.772967 311.648135,249.781536 313.566318,248.95 C311.328438,246.647286 309.554145,244.264652 308.243387,241.802027 C306.932629,239.339402 306.27726,236.636952 306.27726,233.694595 C306.27726,230.816202 306.836721,228.321632 307.955661,226.210811 C309.074601,224.099989 310.545186,222.356989 312.36746,220.981757 C314.189733,219.606525 316.235764,218.599102 318.505614,217.959459 C320.775463,217.319817 323.093233,217 325.458991,217 C327.88869,217 330.238428,217.335807 332.508278,218.007432 C334.778127,218.679057 336.776204,219.702471 338.502569,221.077703 C340.228933,222.452935 341.619595,224.179945 342.674596,226.258784 C343.729596,228.337623 344.257088,230.752239 344.257088,233.502703 C344.257088,235.677488 343.889442,237.676342 343.154139,239.499324 C342.418836,241.322306 341.427789,242.985353 340.180971,244.488514 C338.934152,245.991674 337.463567,247.318913 335.769172,248.47027 C334.074777,249.621627 332.268516,250.645041 330.350333,251.540541 L341.475737,263.15 L349.340247,250.772973 L362.479734,250.772973 L348.860704,270.441892 Z M325.650809,226.306757 C323.412929,226.306757 321.526744,227.010353 319.992198,228.417568 C318.457652,229.824782 317.69039,231.647737 317.69039,233.886486 C317.69039,235.805415 318.217882,237.660351 319.272883,239.451351 C320.327883,241.242351 321.814453,243.001343 323.732636,244.728378 C325.075364,244.1527 326.338148,243.513067 327.521028,242.809459 C328.703907,242.105852 329.742907,241.306311 330.638059,240.410811 C331.533211,239.515311 332.236534,238.523879 332.748049,237.436486 C333.259565,236.349094 333.515319,235.165772 333.515319,233.886486 C333.515319,231.839629 332.780026,230.064647 331.30942,228.561486 C329.838813,227.058326 327.952628,226.306757 325.650809,226.306757 Z M320.088107,256.337838 C318.809318,256.785588 317.610472,257.329276 316.491532,257.968919 C315.372592,258.608562 314.381546,259.376122 313.518363,260.271622 C312.655181,261.167122 311.967843,262.238507 311.456327,263.485811 C310.944812,264.733114 310.689058,266.156298 310.689058,267.755405 C310.689058,269.418477 311.024735,270.921615 311.696099,272.264865 C312.367463,273.608115 313.246617,274.727473 314.333587,275.622973 C315.420557,276.518473 316.635388,277.206079 317.978116,277.685811 C319.320844,278.165543 320.631583,278.405405 321.910371,278.405405 C324.723706,278.405405 327.121398,277.797754 329.10352,276.582432 C331.085643,275.367111 332.907889,273.640101 334.570314,271.401351 L320.088107,256.337838 Z M408.132255,229.281081 L387.320076,229.281081 L387.320076,218.727027 L441.028925,218.727027 L441.028925,229.281081 L420.216746,229.281081 L420.216746,286.656757 L408.132255,286.656757 L408.132255,229.281081 Z M440.453473,218.727027 L453.976594,218.727027 L472.678782,271.017568 L473.062417,271.017568 L491.956422,218.727027 L505,218.727027 L477.761941,286.656757 L467.307897,286.656757 L440.453473,218.727027 Z" id="Movie-&amp;-TV-Copy" fill="#FFFFFF"></path>
            <path d="M1,126.071097 L1,146 L1,146 C1,152.075132 5.92486775,157 12,157 C14.2000339,157 16.3495242,156.340299 18.1707772,155.106125 L116.169684,88.6970391 C121.198858,85.289013 122.513058,78.449311 119.105032,73.4201372 C118.353065,72.3104715 117.404611,71.347592 116.306421,70.5789629 L18.3075139,1.98899368 L18.3075139,1.98899368 C13.3303506,-1.49455006 6.47159234,-0.283732154 2.98804859,4.69343117 C1.69405927,6.54223706 1,8.74429014 1,11.0009451 L1,11.0009451 L1,31.8818326 L56.2890827,70.5789629 C57.3872725,71.347592 58.3357272,72.3104715 59.0876935,73.4201372 C62.4957197,78.449311 61.1815198,85.289013 56.152346,88.6970391 L1,126.071097 Z" id="Combined-Shape-Copy" fill="url(#linearGradient-1)"></path>
        </g>
    </g>
</svg>