<?xml version="1.0" encoding="UTF-8"?>
<svg width="1378px" height="170px" viewBox="0 0 1378 170" version="1.1" xmlns="http://www.w3.org/2000/svg" xmlns:xlink="http://www.w3.org/1999/xlink">
    <!-- Generator: Sketch 47.1 (45422) - http://www.bohemiancoding.com/sketch -->
    <title>Artboard</title>
    <desc>Created with Sketch.</desc>
    <defs>
        <linearGradient x1="50%" y1="3.28842474%" x2="50%" y2="100%" id="linearGradient-1">
            <stop stop-color="#FF2EBE" offset="0%"></stop>
            <stop stop-color="#FF4343" offset="100%"></stop>
        </linearGradient>
        <path d="M14,132.07111 L14,152.000018 L14,152.000018 C14,158.075151 18.9248678,163.000018 25,163.000018 C27.2000348,163.000018 29.3495259,162.340317 31.1707794,161.106142 L129.169663,94.6970376 C134.198836,91.2890102 135.513034,84.4493079 132.105006,79.4201349 C131.353041,78.3104709 130.404587,77.3475926 129.306399,76.5789644 L31.3075161,7.9889761 L31.3075161,7.9889761 C26.3303537,4.50543113 19.4715951,5.71624736 15.9880501,10.6934098 C14.6940598,12.5422162 14,14.7442701 14,17.000926 L14,17.000926 L14,37.881819 L69.2890753,76.5789644 C70.3872635,77.3475926 71.3357169,78.3104709 72.0876825,79.4201349 C75.4957099,84.4493079 74.1815117,91.2890102 69.1523386,94.6970376 L14,132.07111 Z" id="path-2"></path>
        <filter x="-13.3%" y="-8.9%" width="126.7%" height="120.4%" filterUnits="objectBoundingBox" id="filter-3">
            <feOffset dx="0" dy="2" in="SourceAlpha" result="shadowOffsetOuter1"></feOffset>
            <feGaussianBlur stdDeviation="5" in="shadowOffsetOuter1" result="shadowBlurOuter1"></feGaussianBlur>
            <feColorMatrix values="0 0 0 0 0   0 0 0 0 0   0 0 0 0 0  0 0 0 0.59 0" type="matrix" in="shadowBlurOuter1"></feColorMatrix>
        </filter>
        <path d="M194,33.627027 L222.640913,33.627027 L249.391817,107.037838 L249.827973,107.037838 L276.288107,33.627027 L305.074405,33.627027 L305.074405,136.956757 L286.901237,136.956757 L286.901237,53.9135135 L286.610466,53.9135135 L255.352617,136.956757 L242.558706,136.956757 L211.737012,53.9135135 L211.446242,53.9135135 L211.446242,136.956757 L194,136.956757 L194,33.627027 Z M322.811418,101.637838 C322.811418,96.0918642 323.804874,91.0567794 325.791817,86.5324324 C327.77876,82.0080855 330.468362,78.1405566 333.860704,74.9297297 C337.253046,71.7189029 341.275334,69.2378466 345.927688,67.4864865 C350.580042,65.7351264 355.523095,64.8594595 360.756993,64.8594595 C365.990892,64.8594595 370.933944,65.7351264 375.586299,67.4864865 C380.238653,69.2378466 384.260941,71.7189029 387.653283,74.9297297 C391.045624,78.1405566 393.735226,82.0080855 395.722169,86.5324324 C397.709112,91.0567794 398.702569,96.0918642 398.702569,101.637838 C398.702569,107.183812 397.709112,112.24322 395.722169,116.816216 C393.735226,121.389212 391.045624,125.305389 387.653283,128.564865 C384.260941,131.824341 380.238653,134.378369 375.586299,136.227027 C370.933944,138.075685 365.990892,139 360.756993,139 C355.523095,139 350.580042,138.075685 345.927688,136.227027 C341.275334,134.378369 337.253046,131.824341 333.860704,128.564865 C330.468362,125.305389 327.77876,121.389212 325.791817,116.816216 C323.804874,112.24322 322.811418,107.183812 322.811418,101.637838 Z M340.54843,101.637838 C340.54843,104.362176 340.960351,107.086473 341.784206,109.810811 C342.60806,112.535149 343.843823,114.967557 345.491532,117.108108 C347.139241,119.248659 349.223077,120.999993 351.743102,122.362162 C354.263127,123.724331 357.267728,124.405405 360.756993,124.405405 C364.246259,124.405405 367.25086,123.724331 369.770885,122.362162 C372.29091,120.999993 374.374746,119.248659 376.022455,117.108108 C377.670164,114.967557 378.905927,112.535149 379.729781,109.810811 C380.553636,107.086473 380.965557,104.362176 380.965557,101.637838 C380.965557,98.9134999 380.553636,96.2135269 379.729781,93.5378378 C378.905927,90.8621488 377.670164,88.4540648 376.022455,86.3135135 C374.374746,84.1729623 372.29091,82.4459525 369.770885,81.1324324 C367.25086,79.8189124 364.246259,79.1621622 360.756993,79.1621622 C357.267728,79.1621622 354.263127,79.8189124 351.743102,81.1324324 C349.223077,82.4459525 347.139241,84.1729623 345.491532,86.3135135 C343.843823,88.4540648 342.60806,90.8621488 341.784206,93.5378378 C340.960351,96.2135269 340.54843,98.9134999 340.54843,101.637838 Z M405.099524,66.9027027 L424.145005,66.9027027 L442.463559,117.983784 L442.754329,117.983784 L461.218268,66.9027027 L479.682207,66.9027027 L451.913606,136.956757 L433.304282,136.956757 L405.099524,66.9027027 Z M490.440723,66.9027027 L507.886965,66.9027027 L507.886965,136.956757 L490.440723,136.956757 L490.440723,66.9027027 Z M487.969172,43.1135135 C487.969172,40.2918778 489.01109,37.8351456 491.094957,35.7432432 C493.178824,33.6513409 495.819965,32.6054054 499.018459,32.6054054 C502.216952,32.6054054 504.906554,33.6026927 507.087345,35.5972973 C509.268136,37.5919019 510.358516,40.0972822 510.358516,43.1135135 C510.358516,46.1297448 509.268136,48.6351252 507.087345,50.6297297 C504.906554,52.6243343 502.216952,53.6216216 499.018459,53.6216216 C495.819965,53.6216216 493.178824,52.5756861 491.094957,50.4837838 C489.01109,48.3918814 487.969172,45.9351492 487.969172,43.1135135 Z M578.253473,94.9243243 C578.253473,92.6864753 577.938474,90.5459562 577.308468,88.5027027 C576.678462,86.4594492 575.685005,84.6594672 574.328069,83.1027027 C572.971132,81.5459382 571.250756,80.30541 569.166889,79.3810811 C567.083022,78.4567521 564.635726,77.9945946 561.824929,77.9945946 C556.59103,77.9945946 552.156821,79.5756599 548.522169,82.7378378 C544.887518,85.9000158 542.876374,89.9621374 542.488677,94.9243243 L578.253473,94.9243243 Z M595.699715,102.805405 L595.699715,105.140541 C595.699715,105.918923 595.651253,106.697293 595.554329,107.475676 L542.488677,107.475676 C542.682526,110.005418 543.336753,112.316206 544.45138,114.408108 C545.566006,116.50001 547.044076,118.299992 548.885633,119.808108 C550.72719,121.316224 552.811025,122.508104 555.137203,123.383784 C557.46338,124.259464 559.886445,124.697297 562.40647,124.697297 C566.768052,124.697297 570.451111,123.894603 573.455756,122.289189 C576.460402,120.683776 578.931928,118.470284 580.870409,115.648649 L592.501237,124.989189 C585.619629,134.329776 575.636602,139 562.551855,139 C557.124109,139 552.132595,138.148657 547.577165,136.445946 C543.021734,134.743235 539.072139,132.335151 535.728259,129.221622 C532.384379,126.108093 529.767469,122.289212 527.87745,117.764865 C525.987431,113.240518 525.042436,108.108137 525.042436,102.367568 C525.042436,96.7242961 525.987431,91.591915 527.87745,86.9702703 C529.767469,82.3486255 532.360148,78.4081244 535.655566,75.1486486 C538.950984,71.8891729 542.852118,69.3594685 547.359087,67.5594595 C551.866055,65.7594505 556.736415,64.8594595 561.970314,64.8594595 C566.816516,64.8594595 571.299187,65.6621541 575.418459,67.2675676 C579.537731,68.872981 583.099636,71.2567409 586.104282,74.4189189 C589.108927,77.5810969 591.4593,81.521598 593.155471,86.2405405 C594.851642,90.9594831 595.699715,96.4810495 595.699715,102.805405 Z M721.312655,112.291892 L745.301237,136.956757 L722.039581,136.956757 L710.699524,125.135135 C707.307183,129.124344 703.187972,132.432419 698.34177,135.059459 C693.495567,137.6865 687.340982,139 679.877831,139 C675.3224,139 670.960884,138.367574 666.793149,137.102703 C662.625415,135.837832 658.966587,133.940553 655.816556,131.410811 C652.666524,128.881068 650.146537,125.743262 648.256518,121.997297 C646.366499,118.251333 645.421503,113.897322 645.421503,108.935135 C645.421503,105.140522 646.0515,101.710826 647.311513,98.6459459 C648.571525,95.5810658 650.24344,92.8324446 652.327307,90.4 C654.411174,87.9675554 656.785778,85.8756844 659.451189,84.1243243 C662.116601,82.3729642 664.903125,80.8648712 667.810847,79.6 C664.418505,76.0972798 661.728903,72.4729917 659.74196,68.727027 C657.755017,64.9810624 656.76156,60.8702926 656.76156,56.3945946 C656.76156,52.0161943 657.609633,48.2216377 659.305804,45.0108108 C661.001975,41.7999839 663.231195,39.1486591 665.99353,37.0567568 C668.755865,34.9648544 671.857388,33.4324373 675.298192,32.4594595 C678.738996,31.4864816 682.25244,31 685.83863,31 C689.521744,31 693.083649,31.5108057 696.524453,32.5324324 C699.965257,33.5540592 702.994088,35.1108004 705.611037,37.2027027 C708.227986,39.2946051 710.336053,41.9216058 711.9353,45.0837838 C713.534547,48.2459618 714.334158,51.918898 714.334158,56.1027027 C714.334158,59.4108274 713.776853,62.4513375 712.662226,65.2243243 C711.5476,67.9973112 710.0453,70.5270156 708.155281,72.8135135 C706.265262,75.1000114 704.036042,77.1189102 701.467555,78.8702703 C698.899067,80.6216304 696.161004,82.1783716 693.253283,83.5405405 L710.117983,101.2 L722.039581,82.372973 L741.957374,82.372973 L721.312655,112.291892 Z M686.129401,45.1567568 C682.737059,45.1567568 679.877842,46.2270163 677.551665,48.3675676 C675.225488,50.5081188 674.062417,53.2810641 674.062417,56.6864865 C674.062417,59.60542 674.862028,62.4270134 676.461275,65.1513514 C678.060522,67.8756893 680.313972,70.5513382 683.221694,73.1783784 C685.257099,72.3026983 687.17132,71.3297351 688.964415,70.2594595 C690.75751,69.1891838 692.332502,67.9729798 693.689439,66.6108108 C695.046375,65.2486418 696.112524,63.7405488 696.887916,62.0864865 C697.663309,60.4324242 698.050999,58.6324422 698.050999,56.6864865 C698.050999,53.5729574 696.936389,50.8729844 694.707136,48.5864865 C692.477883,46.2999886 689.618666,45.1567568 686.129401,45.1567568 Z M677.69705,90.8378378 C675.758569,91.5189223 673.941271,92.3459411 672.2451,93.3189189 C670.548929,94.2918968 669.046629,95.4594526 667.738154,96.8216216 C666.429679,98.1837906 665.387762,99.813504 664.612369,101.710811 C663.836977,103.608118 663.449286,105.772961 663.449286,108.205405 C663.449286,110.735148 663.95813,113.021611 664.975833,115.064865 C665.993535,117.108118 667.326221,118.810804 668.97393,120.172973 C670.621638,121.535142 672.463168,122.581077 674.498573,123.310811 C676.533978,124.040544 678.520891,124.405405 680.459372,124.405405 C684.72403,124.405405 688.358628,123.48109 691.363273,121.632432 C694.367919,119.783775 697.130213,117.156774 699.650238,113.751351 L677.69705,90.8378378 Z M811.160799,49.6810811 L779.612179,49.6810811 L779.612179,33.627027 L861.027973,33.627027 L861.027973,49.6810811 L829.479353,49.6810811 L829.479353,136.956757 L811.160799,136.956757 L811.160799,49.6810811 Z M860.155661,33.627027 L880.654995,33.627027 L909.005138,113.167568 L909.586679,113.167568 L938.227593,33.627027 L958,33.627027 L916.710561,136.956757 L900.863559,136.956757 L860.155661,33.627027 Z" id="path-4"></path>
        <filter x="-2.1%" y="-13.0%" width="104.2%" height="129.6%" filterUnits="objectBoundingBox" id="filter-5">
            <feOffset dx="0" dy="2" in="SourceAlpha" result="shadowOffsetOuter1"></feOffset>
            <feGaussianBlur stdDeviation="5" in="shadowOffsetOuter1" result="shadowBlurOuter1"></feGaussianBlur>
            <feColorMatrix values="0 0 0 0 0   0 0 0 0 0   0 0 0 0 0  0 0 0 0.592249774 0" type="matrix" in="shadowBlurOuter1"></feColorMatrix>
        </filter>
        <rect id="path-6" x="0" y="0" width="257" height="107" rx="8"></rect>
    </defs>
    <g id="Page-1" stroke="none" stroke-width="1" fill="none" fill-rule="evenodd">
        <g id="Artboard">
            <g id="Combined-Shape">
                <use fill="black" fill-opacity="1" filter="url(#filter-3)" xlink:href="#path-2"></use>
                <use fill="url(#linearGradient-1)" fill-rule="evenodd" xlink:href="#path-2"></use>
            </g>
            <g id="Movie-&amp;-TV">
                <use fill="black" fill-opacity="1" filter="url(#filter-5)" xlink:href="#path-4"></use>
                <use fill="#FFFFFF" fill-rule="evenodd" xlink:href="#path-4"></use>
            </g>
            <g id="Group-2" transform="translate(1076.000000, 32.000000)">
                <g id="Rectangle">
                    <use fill="#FF3D61" fill-rule="evenodd" xlink:href="#path-6"></use>
                    <rect stroke="#FF0A45" stroke-width="2" x="1" y="1" width="255" height="105" rx="8"></rect>
                </g>
                <path d="M44,28 L63.5258126,28 C65.412374,28 67.2753254,28.2325777 69.1147228,28.6977401 C70.9541201,29.1629025 72.5930457,29.9218403 74.0315488,30.9745763 C75.4700518,32.0273122 76.6373441,33.3860557 77.5334608,35.0508475 C78.4295775,36.7156392 78.8776291,38.7231521 78.8776291,41.0734463 C78.8776291,44.0113141 78.0758525,46.4350187 76.4722753,48.3446328 C74.8686982,50.2542468 72.7699301,51.6252312 70.1759082,52.4576271 L70.1759082,52.6045198 C73.3358985,53.0451999 75.9298815,54.3182569 77.957935,56.4237288 C79.9859885,58.5292007 81,61.3446151 81,64.8700565 C81,67.7099954 80.4576217,70.0969771 79.3728489,72.0310734 C78.2880762,73.9651697 76.8613855,75.5197681 75.0927342,76.6949153 C73.3240829,77.8700624 71.2960599,78.7146867 69.0086042,79.2288136 C66.7211485,79.7429404 64.3983547,80 62.040153,80 L44,80 L44,28 Z M53,50 L60.9004149,50 C63.8630854,50 66.1203242,49.3659484 67.6721992,48.0978261 C69.2240741,46.8297038 70,45.0289972 70,42.6956522 C70,40.2608574 69.2005612,38.536237 67.6016598,37.5217391 C66.0027583,36.5072413 63.5103904,36 60.1244813,36 L53,36 L53,50 Z M53,72 L60.9225092,72 C62.0442861,72 63.2595261,71.9150494 64.5682657,71.7451456 C65.8770053,71.5752419 67.0805603,71.2233036 68.1789668,70.6893204 C69.2773733,70.1553371 70.1888033,69.3786459 70.9132841,68.3592233 C71.637765,67.3398007 72,65.980591 72,64.2815534 C72,61.5630932 71.11194,59.6699083 69.3357934,58.6019417 C67.5596467,57.5339752 64.8720967,57 61.2730627,57 L53,57 L53,72 Z M90,28 L122.743326,28 L122.743326,36.079096 L98.7967146,36.079096 L98.7967146,49.299435 L121.486653,49.299435 L121.486653,57.0847458 L98.7967146,57.0847458 L98.7967146,71.7740113 L124,71.7740113 L124,80 L90,80 L90,28 Z M142.1125,36.079096 L127,36.079096 L127,28 L166,28 L166,36.079096 L150.8875,36.079096 L150.8875,80 L142.1125,80 L142.1125,36.079096 Z M183.756233,28 L191.455679,28 L213,80 L202.828255,80 L198.166205,68.1016949 L176.480609,68.1016949 L171.959834,80 L162,80 L183.756233,28 Z M195,60 L187.568182,39 L180,60 L195,60 Z" id="BETA" fill="#FFFFFF"></path>
            </g>
        </g>
    </g>
</svg>