<?xml version="1.0" encoding="UTF-8"?>
<svg width="408px" height="161px" viewBox="0 0 408 161" version="1.1" xmlns="http://www.w3.org/2000/svg" xmlns:xlink="http://www.w3.org/1999/xlink">
    <!-- Generator: Sketch 47.1 (45422) - http://www.bohemiancoding.com/sketch -->
    <title>tmdb</title>
    <desc>Created with Sketch.</desc>
    <defs></defs>
    <g id="Page-1" stroke="none" stroke-width="1" fill="none" fill-rule="evenodd">
        <g id="tmdb" fill-rule="nonzero" fill="#01D277">
            <polygon id="Shape" points="50.38 102.47 57.32 102.47 57.32 74.71 65.96 74.71 65.96 67.82 41.74 67.82 41.74 74.71 50.38 74.71"></polygon>
            <polygon id="Shape" points="88.53 102.47 95.47 102.47 95.47 67.77 88.53 67.77 88.53 81.65 78.14 81.65 78.14 67.77 71.2 67.77 71.2 102.47 78.14 102.47 78.14 88.59 88.53 88.59"></polygon>
            <polygon id="Shape" points="121.25 95.53 108.23 95.53 108.23 88.59 119.35 88.59 119.35 81.65 108.23 81.65 108.23 74.71 120.66 74.71 120.66 67.77 101.28 67.77 101.28 102.47 121.25 102.47"></polygon>
            <polygon id="Shape" points="157.79 82.54 144.1 67.3 141.87 67.3 141.87 102.54 148.9 102.54 148.9 83.17 157.79 92.49 166.67 83.17 166.62 102.54 173.66 102.54 173.66 67.3 171.47 67.3"></polygon>
            <path d="M197.17,67.25 C173.29,67.25 173.29,103.02 197.17,103.02 C221.05,103.02 221.07,67.25 197.17,67.25 Z M197.17,95.84 C183.29,95.84 183.29,74.39 197.17,74.39 C211.05,74.39 211.07,95.84 197.17,95.84 Z" id="Shape"></path>
            <rect id="Rectangle-path" x="254.5" y="67.83" width="6.94" height="34.7"></rect>
            <polygon id="Shape" points="274.19 95.6 274.19 88.66 285.32 88.66 285.32 81.72 274.19 81.72 274.19 74.78 286.63 74.78 286.63 67.83 267.25 67.83 267.25 102.54 287.21 102.54 287.21 95.6"></polygon>
            <path d="M317.55,68.23 L307.21,68.23 L307.21,102.93 L317.55,102.93 C340.65,102.93 340.65,68.23 317.55,68.23 Z M317.55,95.99 L314.15,95.99 L314.15,75.17 L317.55,75.17 C331.07,75.17 331.07,95.99 317.55,95.99 Z" id="Shape"></path>
            <path d="M360.77,85.55 C362.95,84.05 363.88,81.33 363.97,78.71 C364.12,72.59 360.28,68.18 354.12,68.18 L340.38,68.18 L340.38,102.93 L354.07,102.93 C356.814059,102.908914 359.436728,101.795809 361.358273,99.8367348 C363.279817,97.8776605 364.34199,95.2339535 364.31,92.49 C364.333832,89.7374496 363.012291,87.1466318 360.77,85.55 L360.77,85.55 Z M347.37,75.11 L353.54,75.11 C355.370585,75.248478 356.785236,76.7741848 356.785236,78.61 C356.785236,80.4458152 355.370585,81.971522 353.54,82.11 L347.37,82.11 L347.37,75.11 L347.37,75.11 Z M353.54,95.98 L347.37,95.98 L347.37,89.04 L353.54,89.04 C354.46515,89.0182229 355.359421,89.3733858 356.017543,90.0239642 C356.675664,90.6745427 357.041111,91.5646608 357.03,92.49 C357.043552,93.4206068 356.680538,94.3172131 356.023372,94.976262 C355.366206,95.635311 354.470642,96.0008895 353.54,95.99 L353.54,95.98 Z" id="Shape"></path>
            <polygon id="Shape" points="233.13 86.57 224 67.83 215.99 67.83 232.36 103.27 233.91 103.27 250.28 67.83 242.27 67.83"></polygon>
            <path d="M382.85,146.25 C397.45,146.25 407.33,136.37 407.33,121.77 L407.33,24.49 C407.33,9.89 397.45,0.01 382.85,0.01 L24.48,0.01 C9.88,0.01 0,9.89 0,24.49 L0,160.82 L12.56,146.26 L12.56,146.26 L12.56,24.49 C12.5710103,17.9113318 17.9013318,12.5810103 24.48,12.57 L382.85,12.57 C389.428668,12.5810103 394.75899,17.9113318 394.77,24.49 L394.77,121.77 C394.75899,128.348668 389.428668,133.67899 382.85,133.69 L43.07,133.69 L30.51,146.25 L30.43,146.15 L382.85,146.25 Z" id="Shape"></path>
            <path d="M42.37,52.85 L42.37,37.85 L48.27,37.85 C54.11,37.85 54.09,47.11 48.27,47.11 L45.37,47.11 L45.37,52.84 L42.37,52.84 L42.37,52.85 Z M48.02,44.2 C50.02,44.2 50.02,40.84 48.02,40.84 L45.37,40.84 L45.37,44.2 L48.02,44.2 Z" id="Shape"></path>
            <path d="M64.14,37.59 C74.47,37.59 74.47,53.06 64.14,53.06 C53.81,53.06 53.81,37.59 64.14,37.59 Z M64.14,40.68 C58.14,40.68 58.14,49.96 64.14,49.96 C70.14,49.96 70.15,40.67 64.14,40.67 L64.14,40.68 Z" id="Shape"></path>
            <polygon id="Shape" points="81.19 53.17 75.04 37.84 78.42 37.84 81.42 45.5 84.36 37.98 84.51 37.98 87.45 45.5 90.45 37.84 93.83 37.84 87.7 53.1 87.15 53.1 84.4 46.44 81.67 53.16 81.15 53.16"></polygon>
            <polygon id="Shape" points="97.6 52.85 97.6 37.85 105.07 37.85 105.07 40.85 100.56 40.85 100.56 43.85 104.51 43.85 104.51 46.85 100.56 46.85 100.56 49.85 105.33 49.85 105.33 52.85 97.56 52.85"></polygon>
            <path d="M117.54,52.85 L114.54,47.12 L113.07,47.12 L113.07,52.85 L110.07,52.85 L110.07,37.85 L115.99,37.85 C121.34,37.85 121.87,45.39 117.46,46.67 L120.95,52.86 L117.55,52.86 L117.54,52.85 Z M113.07,44.2 L115.72,44.2 C117.72,44.2 117.72,40.84 115.72,40.84 L113.07,40.84 L113.07,44.2 Z" id="Shape"></path>
            <polygon id="Shape" points="124.83 52.85 124.83 37.85 132.35 37.85 132.35 40.85 127.84 40.85 127.84 43.85 131.79 43.85 131.79 46.85 127.84 46.85 127.84 49.85 132.61 49.85 132.61 52.85 124.84 52.85"></polygon>
            <path d="M141.78,52.85 L137.31,52.85 L137.31,37.85 L141.78,37.85 C151.77,37.84 151.77,52.85 141.78,52.85 Z M140.31,40.85 L140.31,49.85 L141.78,49.85 C147.62,49.85 147.62,40.85 141.78,40.85 L140.31,40.85 Z" id="Shape"></path>
            <polygon id="Shape" points="179.96 46.09 174.73 37.84 178.38 37.84 181.45 43.01 184.52 37.84 188.19 37.84 182.94 46.09 182.94 52.85 179.94 52.85 179.94 46.09"></polygon>
            <path d="M170.65,45.5 C171.561775,44.7761563 172.077274,43.6635696 172.04,42.5 C172.165479,41.3092783 171.76804,40.1227061 170.95068,39.2477856 C170.13332,38.3728652 168.976496,37.8957188 167.78,37.94 L161.84,37.94 L161.84,52.94 L167.78,52.94 C168.966371,52.9320946 170.100702,52.4518318 170.932071,51.6054491 C171.76344,50.7590665 172.223327,49.6163224 172.21,48.43 C172.189872,47.2596992 171.609714,46.1700435 170.65,45.5 Z M164.86,40.99 L167.53,40.99 C168.264818,41.1103946 168.804236,41.7453841 168.804236,42.49 C168.804236,43.2346159 168.264818,43.8696054 167.53,43.99 L164.86,43.99 L164.86,40.99 L164.86,40.99 Z M167.53,49.99 L164.86,49.99 L164.86,46.99 L167.53,46.99 C167.930246,46.9790658 168.317634,47.1318697 168.602638,47.4130984 C168.887642,47.6943272 169.045597,48.0796435 169.04,48.48 C169.053821,48.8890239 168.898794,49.2857261 168.611303,49.5769999 C168.323811,49.8682738 167.92917,50.0284735 167.52,50.02 L167.53,49.99 Z" id="Shape"></path>
        </g>
    </g>
</svg>